<svg xmlns="http://www.w3.org/2000/svg" width="40" height="40" viewBox="0 0 40 40" fill="none">
              <path d="M25.0288 7.76851L32.231 14.9707C32.4697 15.2095 32.6038 15.5332 32.6038 15.8708C32.6038 16.2084 32.4697 16.5322 32.231 16.7709L22.3272 26.6748L19.6281 27.5749L17.8266 29.3751C17.5878 29.6138 17.2641 29.7479 16.9265 29.7479C16.5889 29.7479 16.2651 29.6138 16.0264 29.3751L10.6244 23.9731C10.3857 23.7344 10.2516 23.4106 10.2516 23.073C10.2516 22.7354 10.3857 22.4117 10.6244 22.1729L12.4246 20.3727L13.3247 17.6723L23.2286 7.76851C23.4673 7.52983 23.7911 7.39575 24.1287 7.39575C24.4663 7.39575 24.79 7.52983 25.0288 7.76851ZM25.9289 12.2704L17.8266 20.3727L19.6268 22.1729L27.7291 14.0706L25.9289 12.2704ZM10.1737 26.2241L13.7754 29.8258L11.9752 31.626L6.57324 29.8258L10.1737 26.2241Z" fill="black"></path>
            </svg>