<svg xmlns="http://www.w3.org/2000/svg" width="40" height="40" viewBox="0 0 40 40" fill="none">
              <path d="M25.7292 21.5301L21.2732 24.5003V29.0786L29.1629 23.8192L25.7292 21.5301ZM23.4337 19.9997L20 17.7106L16.5664 19.9997L20 22.2889L23.4337 19.9997ZM30.1852 18.5598L28.0247 19.9997L30.1852 21.4397V18.5611V18.5598ZM29.1629 16.1803L21.2732 10.9209V15.4992L25.7292 18.4694L29.1629 16.1803ZM14.2709 18.4694L18.7269 15.4992V10.9209L10.8372 16.1803L14.2709 18.4694ZM10.8372 23.8192L18.7269 29.0786V24.5003L14.2709 21.5301L10.8372 23.8192ZM9.81485 21.4397L11.9754 19.9997L9.81485 18.5598V21.4397ZM7.26855 16.1803C7.26852 15.9707 7.32023 15.7644 7.41905 15.5796C7.51788 15.3949 7.66079 15.2373 7.83511 15.121L19.2934 7.48215C19.5027 7.34256 19.7485 7.26807 20 7.26807C20.2515 7.26807 20.4974 7.34256 20.7066 7.48215L32.165 15.121C32.3393 15.2373 32.4822 15.3949 32.581 15.5796C32.6799 15.7644 32.7315 15.9707 32.7315 16.1803V23.8192C32.7315 24.0287 32.6799 24.2351 32.581 24.4198C32.4822 24.6046 32.3393 24.7621 32.165 24.8784L20.7066 32.5173C20.4974 32.6569 20.2515 32.7314 20 32.7314C19.7485 32.7314 19.5027 32.6569 19.2934 32.5173L7.83511 24.8784C7.66079 24.7621 7.51788 24.6046 7.41905 24.4198C7.32023 24.2351 7.26852 24.0287 7.26855 23.8192V16.1803Z" fill="black"></path>
            </svg>