<svg xmlns="http://www.w3.org/2000/svg" width="40" height="40" viewBox="0 0 40 40" fill="none">
              <path d="M19.9998 11.088V28.9121H28.9119V11.088H19.9998ZM9.81465 8.54175H30.185C30.5227 8.54175 30.8465 8.67588 31.0853 8.91464C31.324 9.15341 31.4582 9.47724 31.4582 9.8149V30.1853C31.4582 30.5229 31.324 30.8468 31.0853 31.0855C30.8465 31.3243 30.5227 31.4584 30.185 31.4584H9.81465C9.47699 31.4584 9.15316 31.3243 8.9144 31.0855C8.67564 30.8468 8.5415 30.5229 8.5415 30.1853V9.8149C8.5415 9.47724 8.67564 9.15341 8.9144 8.91464C9.15316 8.67588 9.47699 8.54175 9.81465 8.54175Z" fill="black"></path>
            </svg>